<svg width="112" height="48" viewBox="0 0 112 48" fill="none" xmlns="http://www.w3.org/2000/svg">
<path d="M17.7812 1.25V47H12V8.46875L0.34375 12.7188V7.5L16.875 1.25H17.7812Z" fill="black"/>
<path d="M63.3438 20.625V27.5625C63.3438 31.2917 63.0104 34.4375 62.3438 37C61.6771 39.5625 60.7188 41.625 59.4688 43.1875C58.2188 44.75 56.7083 45.8854 54.9375 46.5938C53.1875 47.2812 51.2083 47.625 49 47.625C47.25 47.625 45.6354 47.4062 44.1562 46.9688C42.6771 46.5312 41.3438 45.8333 40.1562 44.875C38.9896 43.8958 37.9896 42.625 37.1562 41.0625C36.3229 39.5 35.6875 37.6042 35.25 35.375C34.8125 33.1458 34.5938 30.5417 34.5938 27.5625V20.625C34.5938 16.8958 34.9271 13.7708 35.5938 11.25C36.2812 8.72917 37.25 6.70833 38.5 5.1875C39.75 3.64583 41.25 2.54167 43 1.875C44.7708 1.20833 46.75 0.875 48.9375 0.875C50.7083 0.875 52.3333 1.09375 53.8125 1.53125C55.3125 1.94792 56.6458 2.625 57.8125 3.5625C58.9792 4.47917 59.9688 5.70833 60.7812 7.25C61.6146 8.77083 62.25 10.6354 62.6875 12.8438C63.125 15.0521 63.3438 17.6458 63.3438 20.625ZM57.5312 28.5V19.6562C57.5312 17.6146 57.4062 15.8229 57.1562 14.2812C56.9271 12.7188 56.5833 11.3854 56.125 10.2812C55.6667 9.17708 55.0833 8.28125 54.375 7.59375C53.6875 6.90625 52.8854 6.40625 51.9688 6.09375C51.0729 5.76042 50.0625 5.59375 48.9375 5.59375C47.5625 5.59375 46.3438 5.85417 45.2812 6.375C44.2188 6.875 43.3229 7.67708 42.5938 8.78125C41.8854 9.88542 41.3438 11.3333 40.9688 13.125C40.5938 14.9167 40.4062 17.0938 40.4062 19.6562V28.5C40.4062 30.5417 40.5208 32.3438 40.75 33.9062C41 35.4688 41.3646 36.8229 41.8438 37.9688C42.3229 39.0938 42.9062 40.0208 43.5938 40.75C44.2812 41.4792 45.0729 42.0208 45.9688 42.375C46.8854 42.7083 47.8958 42.875 49 42.875C50.4167 42.875 51.6562 42.6042 52.7188 42.0625C53.7812 41.5208 54.6667 40.6771 55.375 39.5312C56.1042 38.3646 56.6458 36.875 57 35.0625C57.3542 33.2292 57.5312 31.0417 57.5312 28.5Z" fill="black"/>
<path d="M70.2812 12.6562V10.25C70.2812 8.52083 70.6562 6.94792 71.4062 5.53125C72.1562 4.11458 73.2292 2.97917 74.625 2.125C76.0208 1.27083 77.6771 0.84375 79.5938 0.84375C81.5521 0.84375 83.2188 1.27083 84.5938 2.125C85.9896 2.97917 87.0625 4.11458 87.8125 5.53125C88.5625 6.94792 88.9375 8.52083 88.9375 10.25V12.6562C88.9375 14.3438 88.5625 15.8958 87.8125 17.3125C87.0833 18.7292 86.0208 19.8646 84.625 20.7188C83.25 21.5729 81.5938 22 79.6562 22C77.7188 22 76.0417 21.5729 74.625 20.7188C73.2292 19.8646 72.1562 18.7292 71.4062 17.3125C70.6562 15.8958 70.2812 14.3438 70.2812 12.6562ZM74.625 10.25V12.6562C74.625 13.6146 74.8021 14.5208 75.1562 15.375C75.5312 16.2292 76.0938 16.9271 76.8438 17.4688C77.5938 17.9896 78.5312 18.25 79.6562 18.25C80.7812 18.25 81.7083 17.9896 82.4375 17.4688C83.1667 16.9271 83.7083 16.2292 84.0625 15.375C84.4167 14.5208 84.5938 13.6146 84.5938 12.6562V10.25C84.5938 9.27083 84.4062 8.35417 84.0312 7.5C83.6771 6.625 83.125 5.92708 82.375 5.40625C81.6458 4.86458 80.7188 4.59375 79.5938 4.59375C78.4896 4.59375 77.5625 4.86458 76.8125 5.40625C76.0833 5.92708 75.5312 6.625 75.1562 7.5C74.8021 8.35417 74.625 9.27083 74.625 10.25ZM92.4375 38.2812V35.8438C92.4375 34.1354 92.8125 32.5729 93.5625 31.1562C94.3125 29.7396 95.3854 28.6042 96.7812 27.75C98.1771 26.8958 99.8333 26.4688 101.75 26.4688C103.708 26.4688 105.375 26.8958 106.75 27.75C108.146 28.6042 109.219 29.7396 109.969 31.1562C110.719 32.5729 111.094 34.1354 111.094 35.8438V38.2812C111.094 39.9896 110.719 41.5521 109.969 42.9688C109.24 44.3854 108.177 45.5208 106.781 46.375C105.406 47.2292 103.75 47.6562 101.812 47.6562C99.875 47.6562 98.2083 47.2292 96.8125 46.375C95.4167 45.5208 94.3333 44.3854 93.5625 42.9688C92.8125 41.5521 92.4375 39.9896 92.4375 38.2812ZM96.7812 35.8438V38.2812C96.7812 39.2396 96.9583 40.1562 97.3125 41.0312C97.6875 41.8854 98.25 42.5833 99 43.125C99.75 43.6458 100.688 43.9062 101.812 43.9062C102.938 43.9062 103.865 43.6458 104.594 43.125C105.344 42.5833 105.896 41.8854 106.25 41.0312C106.604 40.1771 106.781 39.2604 106.781 38.2812V35.8438C106.781 34.8646 106.594 33.9479 106.219 33.0938C105.865 32.2396 105.312 31.5521 104.562 31.0312C103.833 30.4896 102.896 30.2188 101.75 30.2188C100.646 30.2188 99.7188 30.4896 98.9688 31.0312C98.2396 31.5521 97.6875 32.2396 97.3125 33.0938C96.9583 33.9479 96.7812 34.8646 96.7812 35.8438ZM103.188 7.96875L80.9688 43.5312L77.7188 41.4688L99.9375 5.90625L103.188 7.96875Z" fill="black"/>
</svg>
