<svg width="124" height="86" viewBox="0 0 124 86" fill="none" xmlns="http://www.w3.org/2000/svg">
<path fill-rule="evenodd" clip-rule="evenodd" d="M12.5172 0.0231114C11.1487 0.171267 9.34419 0.710788 7.97986 1.37971C3.54383 3.55461 0.558129 7.82591 0.0685955 12.6974C0.00449383 13.3348 -0.0124814 21.9488 0.00853555 43.1287C0.0348067 69.6846 0.0507311 72.7364 0.165839 73.3176C0.78883 76.4629 2.09115 78.9337 4.24337 81.0533C6.57213 83.3468 9.44652 84.7111 12.7193 85.0763C13.7632 85.1927 109.568 85.1894 110.633 85.0729C113.939 84.7109 116.851 83.3214 119.177 80.9952C121.182 78.9902 122.477 76.5845 123.115 73.6814L123.301 72.8327V42.6438C123.301 13.4641 123.296 12.4279 123.149 11.6466C122.593 8.68041 121.167 6.01442 119.038 3.95834C117.06 2.04807 114.811 0.850376 111.967 0.192929L111.176 0.0100175L61.9879 0.00120731C34.9346 -0.00356148 12.6728 0.00621858 12.5172 0.0231114ZM110.052 1.66342C113.086 1.89943 115.78 3.11062 117.888 5.18691C120.203 7.46647 121.42 10.1332 121.648 13.4248C121.704 14.24 121.722 24.0776 121.704 43.452L121.676 72.2669L121.501 73.156C120.997 75.7236 119.892 77.8435 118.095 79.6901C117.043 80.7709 116.089 81.4679 114.724 82.1513C113.708 82.6599 113.03 82.9027 111.819 83.1909L110.852 83.421H61.7049H12.5576L11.7408 83.24C10.5839 82.9837 9.78101 82.7059 8.75838 82.2084C5.83605 80.7865 3.65102 78.4108 2.48781 75.3908C2.18815 74.6128 1.81874 73.1515 1.87112 72.9514C1.89287 72.8682 1.8691 72.7861 1.81826 72.7692C1.74906 72.7461 1.72578 65.1563 1.72578 42.6371C1.72578 14.1058 1.7333 12.501 1.86934 11.8707C2.45733 9.14695 3.58465 7.04011 5.4149 5.24478C7.59784 3.10343 10.2688 1.88197 13.2346 1.66875C14.5114 1.57701 108.874 1.57176 110.052 1.66342ZM16.8881 21.1236C12.9613 30.2257 9.48128 38.2185 9.15487 38.8853C8.21792 40.7995 7.30635 42.105 6.56704 42.5912C6.1454 42.8685 5.09359 43.23 4.29163 43.3733L3.70623 43.4779V43.9904V44.5028H9.84964H15.9931V43.9891V43.4753L15.3415 43.4209C13.3199 43.2524 12.1723 42.744 11.693 41.8045C11.4679 41.3633 11.4839 40.66 11.7403 39.7193C11.9867 38.815 12.2244 38.2228 13.867 34.4192L15.1325 31.4888L22.6944 31.5094L30.2563 31.5301L30.9258 33.1466C33.2232 38.6942 33.5703 39.6727 33.6645 40.8656C33.7175 41.537 33.5861 41.9734 33.1885 42.4458C32.7631 42.9513 31.685 43.3359 30.4422 43.4254L29.7349 43.4762V43.9895V44.5028H37.4546H45.1743V43.9937V43.4847L44.4583 43.3943C43.1526 43.2295 42.0184 42.7197 41.2608 41.9567C40.7222 41.4145 40.0229 40.3231 39.3964 39.047C39.1127 38.4691 37.7563 35.2865 36.3821 31.9746C35.008 28.6627 31.8882 21.1428 29.4492 15.2636L25.0149 4.57424H24.5214H24.028L16.8881 21.1236ZM80.0224 5.15692C79.9195 5.48104 79.6845 5.96964 79.5002 6.24275C79.0621 6.89195 78.6303 7.16741 77.9695 7.21914C77.399 7.26384 77.3756 7.25608 75.3743 6.36068C73.8455 5.67664 72.4081 5.21932 70.8497 4.92131C69.7932 4.71916 69.5498 4.70267 67.6058 4.70106C65.798 4.69952 65.3629 4.72401 64.4937 4.87653C63.1351 5.11489 61.6325 5.53657 60.5203 5.99146C60.0159 6.19773 59.5413 6.37119 59.4657 6.37684C59.3899 6.38242 59.3411 6.4002 59.3571 6.41613C59.3731 6.43213 59.0349 6.62983 58.6056 6.85534C56.574 7.92242 54.3903 9.70272 52.8769 11.5254C52.0487 12.5229 50.7933 14.4353 50.2483 15.5295C49.5271 16.9778 48.7984 19.1212 48.4689 20.764C48.3691 21.2618 48.269 21.6873 48.2465 21.7096C48.224 21.7318 48.2026 21.8591 48.199 21.9925C48.1952 22.1258 48.1488 22.6679 48.0956 23.1969C47.8911 25.2314 48.0021 28.0075 48.3674 29.9978C49.385 35.5422 52.7545 40.4534 57.3399 43.0749C59.082 44.071 61.1596 44.7817 63.4429 45.1628C64.4073 45.3238 64.8113 45.3445 66.9188 45.3415C69.2725 45.3381 69.3212 45.3347 70.6776 45.0734C71.5591 44.9035 72.4557 44.6666 73.1784 44.4123C74.2654 44.03 75.9423 43.2146 76.6985 42.7007C78.521 41.4622 80.3945 39.509 81.8701 37.3092C82.3594 36.5796 83.0048 35.5129 83.0048 35.4337C83.0048 35.3813 82.2524 34.8844 82.1732 34.8844C82.1459 34.8844 81.8715 35.2241 81.5634 35.6394C80.1972 37.4809 78.3474 39.4686 77.1443 40.3877C75.6431 41.5347 73.7595 42.3433 71.7688 42.6956C70.4385 42.931 67.55 42.9086 66.1912 42.6521C63.3077 42.1079 60.8867 40.8316 58.9512 38.8354C57.1903 37.0193 56.0703 34.8767 55.3158 31.8809C54.7815 29.7595 54.6752 28.683 54.6782 25.4276C54.6806 22.9475 54.7052 22.3719 54.8595 21.1842C55.3467 17.4332 56.313 14.5535 57.9158 12.0754C59.6332 9.42014 62.2527 7.64736 65.5042 6.93988C66.3939 6.74622 66.6313 6.72868 68.3738 6.72707C70.0363 6.72545 70.3726 6.74735 71.0688 6.90222C75.1203 7.80368 77.8492 10.0461 79.8157 14.09C80.2519 14.9869 80.8131 16.4055 81.1115 17.3651L81.256 17.8299H81.6858H82.1156L82.1102 17.4055C82.1072 17.1722 81.9162 14.1987 81.6858 10.7979L81.2669 4.61465L80.7382 4.59113L80.2096 4.56761L80.0224 5.15692ZM86.319 5.97651V6.49008L87.5517 6.54658C89.2752 6.62547 90.1945 6.87854 90.9002 7.46841C91.3214 7.8205 91.5179 8.21881 91.7101 9.11001C91.8481 9.75 91.8562 10.6341 91.8562 25.0639C91.8562 41.6717 91.8749 40.9783 91.4039 41.8061C91.1377 42.2741 90.5423 42.76 89.9031 43.031C89.1178 43.3639 88.6011 43.452 87.4337 43.452H86.319V43.9777V44.5032L101.364 44.4828L116.409 44.4624L118.017 39.7827C118.902 37.2089 119.647 35.0174 119.673 34.9128C119.72 34.7261 119.711 34.7227 119.126 34.723L118.532 34.7235L118.211 35.347C116.46 38.7583 114.246 41.1984 112.285 41.8804C111 42.3274 110.799 42.341 104.935 42.3781C100.203 42.408 99.4384 42.3961 99.0102 42.2864C98.1539 42.0671 97.7108 41.581 97.5472 40.6815C97.4854 40.3418 97.4426 37.7313 97.4153 32.6414L97.375 25.1043L101.406 25.105C107.206 25.1061 108.501 25.209 109.66 25.7609C110.282 26.0572 111.037 26.7423 111.282 27.2336C111.513 27.6967 111.804 28.8358 111.992 30.0145L112.137 30.9239H112.646H113.156V24.1748V17.4257H112.641H112.126L112.071 18.0926C112.001 18.9482 111.677 20.2283 111.381 20.8138C111.116 21.3397 110.525 22.0281 110.129 22.2724C109.71 22.5319 108.983 22.7611 108.185 22.8861C107.617 22.9748 106.349 23.0002 102.425 23.0013L97.3933 23.0028V15.2838V7.56484L102.466 7.56662C107.968 7.56856 110.432 7.64696 111.427 7.85153C112.817 8.1375 114.021 9.07477 114.609 10.3286C114.939 11.0337 115.311 12.2332 115.549 13.3642L115.689 14.031H116.242H116.794L116.787 13.3642C116.784 12.9975 116.702 11.0788 116.605 9.10055L116.43 5.50375L101.374 5.4833L86.319 5.46293V5.97651ZM26.1237 21.5352C27.8876 25.7959 29.3307 29.3058 29.3307 29.335C29.3307 29.3642 26.3441 29.3881 22.6937 29.3881C16.4064 29.3881 16.0593 29.3807 16.1094 29.2467C16.3526 28.5948 22.8209 13.7885 22.8624 13.7885C22.8923 13.7885 24.3598 17.2745 26.1237 21.5352ZM5.21371 48.2815C5.15138 48.4038 4.79781 49.213 4.428 50.0799C3.96457 51.1663 3.67519 51.7376 3.49654 51.9187L3.23739 52.1814L3.89619 52.1782C4.53494 52.1751 4.54698 52.1716 4.29228 52.0608C3.99117 51.93 3.94711 51.6861 4.15292 51.2882C4.27465 51.0529 4.285 51.0498 4.9556 51.0498H5.63494L5.7941 51.4741C5.96531 51.9306 5.92942 52.0649 5.62014 52.1251C5.52338 52.1439 5.89886 52.1618 6.4546 52.1649C7.18825 52.1689 7.41895 52.1481 7.29689 52.0888C7.06538 51.9765 6.98527 51.8199 6.13457 49.8172C5.72393 48.8503 5.37424 48.0592 5.35751 48.0592C5.34078 48.0592 5.27603 48.1592 5.21371 48.2815ZM12.5967 48.2089C12.0321 48.5089 11.8007 49.1501 12.0697 49.6702C12.2361 49.9919 12.5865 50.2661 13.3168 50.6461C14.0207 51.0122 14.2099 51.2456 14.0867 51.5959C13.9836 51.889 13.6839 52.0339 13.2654 51.9926C12.8002 51.9468 12.3819 51.6121 12.1484 51.0989L11.9606 50.6861L11.956 51.4337C11.9514 52.1685 11.9871 52.275 12.1751 52.087C12.247 52.015 12.3444 52.015 12.5846 52.087C13.0947 52.2398 13.889 52.2068 14.1952 52.0201C14.7208 51.6997 14.9084 51.1081 14.6674 50.5313C14.546 50.2407 14.08 49.8805 13.4872 49.6192C12.9799 49.3955 12.598 49.0547 12.598 48.8258C12.598 48.7178 12.6894 48.5648 12.811 48.4692C13.3083 48.0781 14.0734 48.4248 14.4031 49.1908C14.524 49.4716 14.5249 49.4683 14.5314 48.751C14.5372 48.1184 14.5241 48.0473 14.4267 48.1805C14.3198 48.3267 14.299 48.3274 13.892 48.1959C13.3438 48.0189 12.9468 48.0228 12.5967 48.2089ZM35.9364 48.1753C35.4629 48.3443 35.0862 48.6316 34.8232 49.0243C34.0781 50.1372 34.4537 51.5866 35.613 52.0724C35.9661 52.2203 37.1822 52.2153 37.5178 52.0645C37.8985 51.8935 38.1417 51.6547 38.1417 51.452C38.1417 51.2887 38.1166 51.2982 37.8415 51.5654C37.6764 51.7257 37.4175 51.8978 37.2661 51.9478C36.9198 52.0621 36.3494 52.0014 36.074 51.8209C35.7825 51.6299 35.5539 51.0683 35.4985 50.407C35.3881 49.0899 36.011 48.2136 36.9799 48.3228C37.4272 48.3732 37.7779 48.6345 38.0187 49.0966L38.215 49.4737L38.2187 48.751C38.2221 48.1104 38.2096 48.0459 38.1087 48.1839C37.9981 48.3351 37.9803 48.3355 37.469 48.1993C36.846 48.0333 36.3559 48.0256 35.9364 48.1753ZM41.8373 48.1753C41.3638 48.3443 40.9871 48.6316 40.7241 49.0243C39.9791 50.1372 40.3546 51.5866 41.5139 52.0724C41.867 52.2203 43.0831 52.2153 43.4187 52.0645C43.7994 51.8935 44.0426 51.6547 44.0426 51.452C44.0426 51.2887 44.0176 51.2982 43.7424 51.5654C43.5773 51.7257 43.3184 51.8978 43.167 51.9478C42.8207 52.0621 42.2504 52.0014 41.9749 51.8209C41.6835 51.6299 41.4549 51.0683 41.3994 50.407C41.289 49.0899 41.9119 48.2136 42.8809 48.3228C43.3281 48.3732 43.6789 48.6345 43.9196 49.0966L44.1159 49.4737L44.1196 48.751C44.123 48.1104 44.1105 48.0459 44.0096 48.1839C43.899 48.3351 43.8813 48.3355 43.3699 48.1993C42.7469 48.0333 42.2568 48.0256 41.8373 48.1753ZM45.9018 48.2274C45.2014 48.5444 44.7913 49.1152 44.712 49.8833C44.6236 50.74 44.9758 51.5228 45.6387 51.9432C45.9879 52.1646 46.0693 52.1814 46.7977 52.1814C47.5483 52.1814 47.5971 52.1704 47.9674 51.9187C48.2193 51.7473 48.4403 51.5014 48.603 51.2114C48.8242 50.8169 48.8521 50.6941 48.8509 50.1203C48.8498 49.6115 48.8116 49.4023 48.6718 49.1388C48.4474 48.7161 47.9362 48.2747 47.53 48.153C47.041 48.0065 46.3166 48.0396 45.9018 48.2274ZM66.8151 48.1753C66.3417 48.3443 65.9649 48.6316 65.702 49.0243C64.9569 50.1372 65.3325 51.5866 66.4918 52.0724C66.8449 52.2203 68.0609 52.2153 68.3966 52.0645C68.7772 51.8935 69.0204 51.6547 69.0204 51.452C69.0204 51.2887 68.9954 51.2982 68.7202 51.5654C68.5552 51.7257 68.2963 51.8978 68.1449 51.9478C67.7986 52.0621 67.2282 52.0014 66.9528 51.8209C66.6613 51.6299 66.4327 51.0683 66.3772 50.407C66.2668 49.0899 66.8897 48.2136 67.8587 48.3228C68.306 48.3732 68.6567 48.6345 68.8974 49.0966L69.0938 49.4737L69.0975 48.751C69.1009 48.1104 69.0883 48.0459 68.9875 48.1839C68.8769 48.3351 68.8591 48.3355 68.3477 48.1993C67.7248 48.0333 67.2347 48.0256 66.8151 48.1753ZM71.4171 48.2815C71.3548 48.4038 71.0012 49.213 70.6314 50.0799C70.168 51.1663 69.8786 51.7376 69.6999 51.9187L69.4408 52.1814L70.0996 52.1782C70.7383 52.1751 70.7504 52.1716 70.4957 52.0608C70.1946 51.93 70.1505 51.6861 70.3563 51.2882C70.4781 51.0529 70.4884 51.0498 71.159 51.0498H71.8383L71.9975 51.4741C72.1687 51.9306 72.1328 52.0649 71.8235 52.1251C71.7268 52.1439 72.1023 52.1618 72.658 52.1649C73.3917 52.1689 73.6224 52.1481 73.5003 52.0888C73.2688 51.9765 73.1887 51.8199 72.338 49.8172C71.9273 48.8503 71.5776 48.0592 71.5609 48.0592C71.5442 48.0592 71.4794 48.1592 71.4171 48.2815ZM81.1456 48.2274C80.4452 48.5444 80.0351 49.1152 79.9558 49.8833C79.8674 50.74 80.2196 51.5228 80.8825 51.9432C81.2317 52.1646 81.3131 52.1814 82.0415 52.1814C82.7921 52.1814 82.841 52.1704 83.2112 51.9187C83.4631 51.7473 83.6841 51.5014 83.8468 51.2114C84.068 50.8169 84.0959 50.6941 84.0947 50.1203C84.0936 49.6115 84.0554 49.4023 83.9156 49.1388C83.6912 48.7161 83.18 48.2747 82.7738 48.153C82.2848 48.0065 81.5605 48.0396 81.1456 48.2274ZM89.7936 48.2089C89.229 48.5089 88.9976 49.1501 89.2666 49.6702C89.433 49.9919 89.7833 50.2661 90.5137 50.6461C91.2176 51.0122 91.4068 51.2456 91.2836 51.5959C91.1805 51.889 90.8808 52.0339 90.4623 51.9926C89.9971 51.9468 89.5787 51.6121 89.3453 51.0989L89.1575 50.6861L89.1529 51.4337C89.1483 52.1685 89.1839 52.275 89.372 52.087C89.4439 52.015 89.5412 52.015 89.7815 52.087C90.2915 52.2398 91.0859 52.2068 91.3921 52.0201C91.9177 51.6997 92.1053 51.1081 91.8643 50.5313C91.7428 50.2407 91.2768 49.8805 90.6841 49.6192C90.1768 49.3955 89.7949 49.0547 89.7949 48.8258C89.7949 48.7178 89.8862 48.5648 90.0079 48.4692C90.5052 48.0781 91.2703 48.4248 91.6 49.1908C91.7209 49.4716 91.7217 49.4683 91.7283 48.751C91.7341 48.1184 91.721 48.0473 91.6236 48.1805C91.5167 48.3267 91.4959 48.3274 91.0889 48.1959C90.5407 48.0189 90.1437 48.0228 89.7936 48.2089ZM7.99045 48.2456L8.27337 48.3421L8.29625 49.999C8.30886 50.9104 8.29932 51.7369 8.27507 51.8358C8.2467 51.9512 8.13708 52.0427 7.96919 52.0912C7.78537 52.1443 8.22778 52.1689 9.45582 52.1741L11.2042 52.1814L11.2962 51.563C11.3468 51.2229 11.3693 50.9259 11.3464 50.9029C11.2981 50.8547 11.3117 50.8356 11.1026 51.2453C10.8676 51.7057 10.5843 51.8818 10.0122 51.9232C9.32406 51.9729 9.2838 51.9219 9.2838 50.9995C9.2838 50.3102 9.29762 50.2415 9.4365 50.2415C9.6828 50.2415 9.92361 50.4977 10.0445 50.8881C10.1526 51.2376 10.157 51.2075 10.157 50.1203C10.157 49.0331 10.1526 49.0029 10.0445 49.3524C9.92361 49.7429 9.6828 49.999 9.4365 49.999C9.29698 49.999 9.2838 49.9294 9.2838 49.1908V48.3825L9.70818 48.3827C10.299 48.3828 10.6569 48.5807 10.877 49.0291L11.0555 49.3928L11.0588 48.7664L11.0622 48.14L9.38484 48.1445C7.97711 48.1484 7.75296 48.1647 7.99045 48.2456ZM15.2689 48.726L15.2722 49.312L15.4507 48.9486C15.6464 48.5503 15.8931 48.3855 16.2962 48.3837L16.5589 48.3825L16.5577 50.1001C16.557 51.0448 16.5266 51.8647 16.4901 51.9221C16.4537 51.9795 16.3179 52.0583 16.1883 52.097C16.0263 52.1455 16.2939 52.1682 17.0439 52.1699C17.9916 52.1719 18.098 52.1595 17.8523 52.0758L17.5693 51.9793L17.5476 50.1809L17.5258 48.3825H17.8327C18.2276 48.3825 18.4769 48.5615 18.6624 48.9784L18.8109 49.312L18.8165 48.726L18.8223 48.14H17.0439H15.2655L15.2689 48.726ZM19.3881 48.2456L19.671 48.3421L19.6939 49.999C19.7065 50.9104 19.697 51.7369 19.6727 51.8358C19.6444 51.9512 19.5347 52.0427 19.3668 52.0912C19.1719 52.1475 19.3832 52.1675 20.1965 52.1695C21.1439 52.1719 21.2504 52.1595 21.0048 52.0758L20.7219 51.9793L20.6989 51.1104L20.676 50.2415H21.4062H22.1365L22.1353 51.0296C22.1345 51.463 22.1041 51.8647 22.0677 51.9221C22.0312 51.9795 21.8954 52.0583 21.7659 52.097C21.6039 52.1455 21.8715 52.1682 22.6215 52.1699C23.5692 52.1719 23.6756 52.1595 23.4298 52.0758L23.1469 51.9793L23.124 50.3223C23.1114 49.411 23.121 48.5845 23.1452 48.4856C23.1736 48.3702 23.2832 48.2786 23.4511 48.2301C23.6461 48.1739 23.4348 48.1539 22.6215 48.1519C21.674 48.1495 21.5675 48.1618 21.8131 48.2456L22.0961 48.3421L22.1191 49.1706L22.1421 49.999H21.4118H20.6815L20.6827 49.2514C20.6834 48.8402 20.7138 48.4567 20.7502 48.3993C20.7867 48.3418 20.9225 48.2631 21.0521 48.2244C21.2141 48.1759 20.9464 48.1532 20.1965 48.1515C19.2487 48.1495 19.1424 48.1618 19.3881 48.2456ZM24.1573 48.2456L24.4403 48.3421L24.4631 49.999C24.4757 50.9104 24.4662 51.7369 24.442 51.8358C24.4136 51.9512 24.304 52.0427 24.1361 52.0912C23.9523 52.1443 24.3947 52.1689 25.6227 52.1741L27.3711 52.1814L27.4631 51.563C27.5137 51.2229 27.5362 50.9259 27.5133 50.9029C27.465 50.8547 27.4786 50.8356 27.2695 51.2453C27.0345 51.7057 26.7512 51.8818 26.1791 51.9232C25.4909 51.9729 25.4507 51.9219 25.4507 50.9995C25.4507 50.3102 25.4645 50.2415 25.6034 50.2415C25.8497 50.2415 26.0905 50.4977 26.2113 50.8881C26.3195 51.2376 26.3239 51.2075 26.3239 50.1203C26.3239 49.0331 26.3195 49.0029 26.2113 49.3524C26.0905 49.7429 25.8497 49.999 25.6034 49.999C25.4639 49.999 25.4507 49.9294 25.4507 49.1908V48.3825L25.8751 48.3827C26.4659 48.3828 26.8237 48.5807 27.0439 49.0291L27.2224 49.3928L27.2257 48.7664L27.229 48.14L25.5517 48.1445C24.144 48.1484 23.9198 48.1647 24.1573 48.2456ZM28.0407 48.726L28.044 49.312L28.2226 48.9486C28.4183 48.5503 28.6649 48.3855 29.068 48.3837L29.3307 48.3825L29.3295 50.1001C29.3288 51.0448 29.2984 51.8647 29.2619 51.9221C29.2255 51.9795 29.0897 52.0583 28.9601 52.097C28.7981 52.1455 29.0658 52.1682 29.8157 52.1699C30.7634 52.1719 30.8698 52.1595 30.6241 52.0758L30.3412 51.9793L30.3194 50.1809L30.2977 48.3825H30.6045C30.9995 48.3825 31.2488 48.5615 31.4342 48.9784L31.5827 49.312L31.5884 48.726L31.5941 48.14H29.8157H28.0374L28.0407 48.726ZM32.2408 48.2456L32.5237 48.3421L32.5466 49.999C32.5592 50.9104 32.5496 51.7369 32.5254 51.8358C32.497 51.9512 32.3874 52.0427 32.2195 52.0912C32.0245 52.1475 32.2358 52.1675 33.0491 52.1695C33.9966 52.1719 34.1031 52.1595 33.8575 52.0758L33.5745 51.9793L33.5517 50.3223C33.5391 49.411 33.5486 48.5845 33.5729 48.4856C33.6012 48.3702 33.7108 48.2786 33.8787 48.2301C34.0737 48.1739 33.8624 48.1539 33.0491 48.1519C32.1017 48.1495 31.9951 48.1618 32.2408 48.2456ZM49.5394 48.2456L49.8223 48.3421L49.8451 49.9586C49.8578 50.8477 49.8474 51.6593 49.8222 51.7621C49.7954 51.8707 49.6674 51.9964 49.5163 52.0621C49.2696 52.1693 49.2934 52.1747 49.9839 52.1688C50.3841 52.1654 50.6387 52.1449 50.5498 52.1233C50.1197 52.0185 50.105 51.9546 50.1078 50.2088L50.1104 48.5846L50.8869 50.3879C51.3141 51.3796 51.6938 52.1609 51.7309 52.1239C51.7678 52.087 52.1252 51.2573 52.525 50.2802L53.2521 48.5037L53.2537 50.1607C53.2545 51.072 53.2254 51.8647 53.1889 51.9221C53.1525 51.9795 53.0167 52.0583 52.8871 52.097C52.7251 52.1455 52.9928 52.1682 53.7427 52.1699C54.6904 52.1719 54.7968 52.1595 54.5511 52.0758L54.2682 51.9793L54.2453 50.3223C54.2327 49.411 54.2422 48.5845 54.2665 48.4856C54.2947 48.3708 54.4052 48.2779 54.5723 48.2286C54.7731 48.1694 54.638 48.1548 53.9926 48.166L53.1511 48.1804L52.6385 49.4266C52.3565 50.112 52.1153 50.6834 52.1024 50.6962C52.0896 50.709 51.8313 50.1392 51.5284 49.4298L50.9776 48.14L50.117 48.1445C49.3428 48.1487 49.2849 48.1588 49.5394 48.2456ZM55.2786 48.2456L55.5615 48.3421L55.5844 49.999C55.597 50.9104 55.5875 51.7369 55.5632 51.8358C55.5348 51.9512 55.4252 52.0427 55.2573 52.0912C55.0631 52.1473 55.2768 52.1669 56.0869 52.1671C56.8331 52.1674 57.1037 52.1452 56.9426 52.097C56.813 52.0583 56.6772 51.9795 56.6407 51.9221C56.6043 51.8647 56.5739 51.4865 56.5732 51.0817L56.5719 50.3458L57.1317 50.2989C57.4396 50.273 57.805 50.1933 57.9436 50.1216C58.5547 49.8056 58.69 48.9686 58.2009 48.5315C57.841 48.2101 57.4749 48.1404 56.1678 48.145C55.1522 48.1486 55.0334 48.162 55.2786 48.2456ZM59.0778 48.2456L59.3607 48.3421L59.3836 49.999C59.3962 50.9104 59.3867 51.7369 59.3624 51.8358C59.3341 51.9512 59.2244 52.0427 59.0566 52.0912C58.8733 52.1442 59.3315 52.169 60.5863 52.1741L62.3778 52.1814L62.4219 51.8783C62.5392 51.0731 62.563 50.7266 62.5007 50.7285C62.4632 50.7296 62.3233 50.957 62.1899 51.2337C62.0566 51.5104 61.9188 51.7264 61.8839 51.7137C61.849 51.701 61.7646 51.7465 61.6963 51.8147C61.5438 51.9673 60.6141 51.9878 60.4682 51.8419C60.3991 51.7729 60.3712 51.2759 60.3712 50.1195C60.3712 48.3804 60.3958 48.2631 60.7753 48.1972C60.8865 48.1778 60.4864 48.1591 59.8862 48.1556C58.9418 48.15 58.833 48.1622 59.0778 48.2456ZM63.1195 48.2456L63.4025 48.3421L63.4253 49.999C63.4379 50.9104 63.4284 51.7369 63.4042 51.8358C63.3758 51.9512 63.2662 52.0427 63.0983 52.0912C62.9033 52.1475 63.1146 52.1675 63.9279 52.1695C64.8753 52.1719 64.9819 52.1595 64.7362 52.0758L64.4533 51.9793L64.4304 50.3223C64.4178 49.411 64.4274 48.5845 64.4516 48.4856C64.48 48.3702 64.5896 48.2786 64.7575 48.2301C64.9525 48.1739 64.7412 48.1539 63.9279 48.1519C62.9804 48.1495 62.8739 48.1618 63.1195 48.2456ZM73.5505 48.726L73.5538 49.312L73.7324 48.9486C73.9281 48.5503 74.1747 48.3855 74.5778 48.3837L74.8405 48.3825L74.8393 50.1001C74.8386 51.0448 74.8082 51.8647 74.7717 51.9221C74.7353 51.9795 74.5995 52.0583 74.4699 52.097C74.3079 52.1455 74.5756 52.1682 75.3255 52.1699C76.2732 52.1719 76.3796 52.1595 76.1339 52.0758L75.851 51.9793L75.8292 50.1809L75.8075 48.3825H76.1143C76.5093 48.3825 76.7586 48.5615 76.944 48.9784L77.0925 49.312L77.0982 48.726L77.1039 48.14H75.3255H73.5472L73.5505 48.726ZM77.7506 48.2456L78.0335 48.3421L78.0564 49.999C78.069 50.9104 78.0594 51.7369 78.0352 51.8358C78.0068 51.9512 77.8972 52.0427 77.7293 52.0912C77.5343 52.1475 77.7456 52.1675 78.5589 52.1695C79.5064 52.1719 79.6129 52.1595 79.3673 52.0758L79.0843 51.9793L79.0615 50.3223C79.0488 49.411 79.0584 48.5845 79.0826 48.4856C79.111 48.3702 79.2206 48.2786 79.3885 48.2301C79.5835 48.1739 79.3722 48.1539 78.5589 48.1519C77.6115 48.1495 77.5049 48.1618 77.7506 48.2456ZM84.6215 48.1971C84.6882 48.2215 84.8246 48.3159 84.9246 48.4069C85.1012 48.5675 85.1065 48.6176 85.1065 50.1278C85.1065 50.9833 85.0829 51.7447 85.054 51.82C85.0251 51.8953 84.8887 52.006 84.7508 52.0659C84.5164 52.168 84.5472 52.1751 85.2278 52.1751C85.9209 52.1751 85.943 52.1697 85.6954 52.0621C85.5445 51.9964 85.4161 51.8707 85.3893 51.7621C85.364 51.6593 85.3536 50.9815 85.3663 50.256L85.3894 48.9367L86.6828 50.5542C87.3941 51.4438 88.0216 52.1739 88.0772 52.1765C88.1551 52.1802 88.1782 51.7758 88.1782 50.4098C88.1782 49.4354 88.2018 48.5766 88.2308 48.5014C88.2596 48.4261 88.396 48.3154 88.5339 48.2554C88.7683 48.1533 88.7375 48.1463 88.057 48.1463C87.3638 48.1463 87.3417 48.1517 87.5893 48.2593C87.9169 48.4017 87.9478 48.5317 87.9187 49.6432L87.8953 50.5402L86.9286 49.3401L85.9619 48.14L85.2311 48.1464C84.8291 48.1499 84.5548 48.1727 84.6215 48.1971ZM94.16 48.2456L94.4429 48.3421L94.4658 49.999C94.4784 50.9104 94.4688 51.7369 94.4446 51.8358C94.4162 51.9512 94.3066 52.0427 94.1387 52.0912C93.9549 52.1443 94.3973 52.1689 95.6253 52.1741L97.3737 52.1814L97.4657 51.563C97.5163 51.2229 97.5388 50.9259 97.5159 50.9029C97.4676 50.8547 97.4812 50.8356 97.2721 51.2453C97.0371 51.7057 96.7539 51.8818 96.1817 51.9232C95.4936 51.9729 95.4533 51.9219 95.4533 50.9995C95.4533 50.3102 95.4671 50.2415 95.606 50.2415C95.8523 50.2415 96.0931 50.4977 96.214 50.8881C96.3221 51.2376 96.3265 51.2075 96.3265 50.1203C96.3265 49.0331 96.3221 49.0029 96.214 49.3524C96.0931 49.7429 95.8523 49.999 95.606 49.999C95.4665 49.999 95.4533 49.9294 95.4533 49.1908V48.3825L95.8777 48.3827C96.4685 48.3828 96.8264 48.5807 97.0465 49.0291L97.225 49.3928L97.2284 48.7664L97.2317 48.14L95.5544 48.1445C94.1466 48.1484 93.9225 48.1647 94.16 48.2456ZM98.0248 48.2678C98.191 48.3842 99.495 50.2481 99.495 50.3694C99.495 50.5238 98.3022 51.8862 98.0507 52.0191L97.7571 52.1743L98.525 52.1684C98.9474 52.1652 99.2202 52.1447 99.1313 52.1228C98.907 52.0677 98.7675 51.9419 98.7675 51.7944C98.7675 51.687 99.5591 50.5648 99.6349 50.5648C99.6908 50.5648 100.465 51.8212 100.465 51.912C100.465 51.9638 100.365 52.0427 100.243 52.0874C100.074 52.1491 100.273 52.1688 101.071 52.1695C101.915 52.1702 102.084 52.1523 101.93 52.0784C101.825 52.0277 101.411 51.4965 101.01 50.8979C100.178 49.6537 100.181 49.8476 100.974 48.887C101.295 48.4981 101.543 48.2758 101.709 48.2275C101.904 48.171 101.788 48.1532 101.193 48.1485C100.524 48.1432 100.451 48.1556 100.627 48.2443C100.943 48.4034 100.914 48.6283 100.514 49.144L100.151 49.6111L99.7844 49.0392C99.4057 48.4484 99.3826 48.2549 99.6838 48.1962C99.78 48.1774 99.4051 48.1571 98.8505 48.151C97.9101 48.1407 97.8547 48.1486 98.0248 48.2678ZM102.405 48.2456L102.688 48.3421L102.711 49.999C102.723 50.9104 102.714 51.7369 102.69 51.8358C102.661 51.9512 102.552 52.0427 102.384 52.0912C102.19 52.1473 102.403 52.1669 103.213 52.1671C103.96 52.1674 104.23 52.1452 104.069 52.097C103.939 52.0583 103.804 51.9795 103.767 51.9221C103.731 51.8647 103.7 51.4865 103.7 51.0817L103.698 50.3458L104.258 50.2989C104.566 50.273 104.931 50.1933 105.07 50.1216C105.681 49.8056 105.817 48.9686 105.327 48.5315C104.968 48.2101 104.601 48.1404 103.294 48.145C102.279 48.1486 102.16 48.162 102.405 48.2456ZM106.204 48.2456L106.487 48.3421L106.51 49.999C106.523 50.9104 106.513 51.7369 106.489 51.8358C106.461 51.9512 106.351 52.0427 106.183 52.0912C105.999 52.1443 106.442 52.1689 107.67 52.1741L109.418 52.1814L109.51 51.563C109.561 51.2229 109.583 50.9259 109.56 50.9029C109.512 50.8547 109.526 50.8356 109.316 51.2453C109.081 51.7057 108.798 51.8818 108.226 51.9232C107.538 51.9729 107.498 51.9219 107.498 50.9995C107.498 50.3102 107.511 50.2415 107.65 50.2415C107.897 50.2415 108.137 50.4977 108.258 50.8881C108.366 51.2376 108.371 51.2075 108.371 50.1203C108.371 49.0331 108.366 49.0029 108.258 49.3524C108.137 49.7429 107.897 49.999 107.65 49.999C107.511 49.999 107.498 49.9294 107.498 49.1908V48.3825L107.922 48.3827C108.513 48.3828 108.871 48.5807 109.091 49.0291L109.269 49.3928L109.273 48.7664L109.276 48.14L107.599 48.1445C106.191 48.1484 105.967 48.1647 106.204 48.2456ZM110.165 48.2456L110.448 48.3421L110.471 49.999C110.484 50.9104 110.474 51.7369 110.45 51.8358C110.421 51.9512 110.312 52.0427 110.144 52.0912C109.95 52.1473 110.163 52.1669 110.974 52.1671C111.72 52.1674 111.99 52.1452 111.829 52.097C111.7 52.0583 111.564 51.9795 111.527 51.9221C111.491 51.8647 111.46 51.4812 111.46 51.07C111.458 50.0445 111.562 50.0658 112.371 51.2552L113.001 52.1814H113.604C113.952 52.1814 114.207 52.1472 114.207 52.1005C114.207 52.0561 114.173 52.0197 114.131 52.0197C114.054 52.0197 112.792 50.2473 112.844 50.2124C112.86 50.202 112.973 50.1504 113.096 50.0979C113.657 49.8569 113.801 49.0066 113.36 48.5456C113.047 48.2191 112.61 48.1394 111.16 48.1445C110.062 48.1485 109.922 48.1627 110.165 48.2456ZM114.21 48.726L114.214 49.312L114.392 48.9486C114.588 48.5503 114.834 48.3855 115.238 48.3837L115.5 48.3825L115.499 50.1001C115.498 51.0448 115.468 51.8647 115.431 51.9221C115.395 51.9795 115.259 52.0583 115.13 52.097C114.968 52.1455 115.235 52.1682 115.985 52.1699C116.933 52.1719 117.039 52.1595 116.794 52.0758L116.511 51.9793L116.489 50.1809L116.467 48.3825H116.774C117.169 48.3825 117.418 48.5615 117.604 48.9784L117.752 49.312L117.758 48.726L117.764 48.14H115.985H114.207L114.21 48.726ZM47.3946 48.5657C48.0117 49.1828 48.0054 51.1448 47.3843 51.7659C47.135 52.0152 47.077 52.0365 46.7485 51.9995C46.3194 51.9512 46.1906 51.8566 45.9573 51.4189C45.8067 51.1365 45.782 50.9592 45.782 50.1607C45.782 49.3523 45.8057 49.1867 45.9636 48.89C46.3013 48.2555 46.9397 48.1109 47.3946 48.5657ZM82.6384 48.5657C83.2556 49.1828 83.2492 51.1448 82.6281 51.7659C82.3788 52.0152 82.3208 52.0365 81.9923 51.9995C81.5632 51.9512 81.4344 51.8566 81.2011 51.4189C81.0506 51.1365 81.0258 50.9592 81.0258 50.1607C81.0258 49.3523 81.0495 49.1867 81.2075 48.89C81.5451 48.2555 82.1835 48.1109 82.6384 48.5657ZM57.3057 48.6187C57.4991 48.8122 57.542 48.9232 57.542 49.2312C57.542 49.5391 57.4991 49.6502 57.3057 49.8436C57.1469 50.0024 56.9878 50.0799 56.8207 50.0799H56.5719V49.2312V48.3825H56.8207C56.9878 48.3825 57.1469 48.46 57.3057 48.6187ZM104.432 48.6187C104.626 48.8122 104.668 48.9232 104.668 49.2312C104.668 49.5391 104.626 49.6502 104.432 49.8436C104.273 50.0024 104.114 50.0799 103.947 50.0799H103.698V49.2312V48.3825H103.947C104.114 48.3825 104.273 48.46 104.432 48.6187ZM112.484 48.6595C112.618 48.8148 112.671 48.9772 112.671 49.2312C112.671 49.749 112.424 50.0077 111.878 50.0601L111.459 50.1004V49.2312V48.362L111.878 48.4022C112.204 48.4335 112.34 48.4911 112.484 48.6595ZM5.23303 50.149C5.37133 50.4759 5.48458 50.7578 5.48458 50.7754C5.48458 50.7929 5.23125 50.8073 4.92165 50.8073H4.35864L4.52403 50.4234C4.61497 50.2123 4.74147 49.9156 4.80509 49.7643C4.86879 49.6131 4.93451 49.504 4.95116 49.5218C4.96781 49.5398 5.09464 49.822 5.23303 50.149ZM71.4364 50.149C71.5747 50.4759 71.688 50.7578 71.688 50.7754C71.688 50.7929 71.4347 50.8073 71.1251 50.8073H70.562L70.7274 50.4234C70.8184 50.2123 70.9449 49.9156 71.0085 49.7643C71.0722 49.6131 71.1379 49.504 71.1546 49.5218C71.1712 49.5398 71.298 49.822 71.4364 50.149ZM25.0465 56.6425C25.0465 57.3451 24.7164 57.8393 24.2469 57.8393C24.0894 57.8393 23.2137 57.5861 22.3008 57.2767C20.3244 56.6068 19.5575 56.466 17.883 56.4655C14.7696 56.4647 12.3885 57.3376 10.1797 59.2897C8.53398 60.744 7.12585 62.9976 6.52492 65.1387C6.38524 65.6362 6.25405 66.0978 6.23327 66.1644C6.13069 66.4942 6.09181 67.2358 6.102 68.6701C6.11251 70.1548 6.12803 70.3048 6.36972 71.2565C7.27878 74.8371 9.81602 77.6974 13.1904 78.9458C14.8247 79.5503 16.5136 79.783 18.8119 79.7203C21.36 79.6508 22.9113 79.3025 25.1071 78.3067L26.0974 77.8577L26.1008 74.6177C26.1045 71.2822 26.1801 69.5176 26.3438 68.953C26.3998 68.7599 26.5753 68.497 26.7794 68.3005C27.1347 67.9582 27.4683 67.831 28.2597 67.736L28.6841 67.685V67.3692V67.0535H24.3594H20.0348V67.4063V67.7589L20.7825 67.7982C21.831 67.8533 22.3922 68.1655 22.7553 68.8958C22.8933 69.1731 22.9062 69.5028 22.9287 73.3185L22.9528 77.4416L22.4032 77.7137C21.156 78.3312 19.9215 78.6118 18.4528 78.6118C14.0619 78.6118 10.7991 75.2401 9.96621 69.8421C9.77633 68.6115 9.83873 66.1705 10.0912 64.952C10.4254 63.339 11.1853 61.568 12.0033 60.4955C12.6529 59.644 13.5896 58.8562 14.4863 58.4075C15.784 57.7581 16.3169 57.6455 18.0948 57.6449C19.3946 57.6445 19.6788 57.6683 20.2673 57.827C21.5239 58.1658 22.758 58.9072 23.6215 59.8419C24.2092 60.4782 24.9565 61.7928 25.3662 62.9112C25.5346 63.371 25.5721 63.4163 25.7839 63.4163C26.0114 63.4163 26.0164 63.4069 26.0108 62.992C26.0076 62.7586 25.9076 61.1855 25.7885 59.4962L25.5719 56.4248L25.3092 56.3995C25.0605 56.3755 25.0465 56.3884 25.0465 56.6425ZM62.0283 56.5862C60.3778 56.877 58.7288 57.5758 57.4584 58.5226C56.59 59.1698 55.2802 60.5237 54.7568 61.3153C53.7669 62.8123 53.1793 64.4107 52.9299 66.2852C52.7862 67.3648 52.8704 69.7898 53.0893 70.8767C53.9835 75.3166 57.1821 78.6481 61.422 79.5559C61.9622 79.6715 62.4634 79.7026 63.7662 79.7009C65.2342 79.6992 65.5109 79.6771 66.1912 79.5077C68.318 78.9782 70.012 77.9804 71.53 76.3631C73.048 74.7458 73.9619 72.9888 74.4398 70.7692C74.7143 69.4939 74.7571 67.1285 74.5299 65.794C74.1039 63.2924 73.1024 61.3456 71.3292 59.5719C70.4308 58.6733 69.708 58.1331 68.7002 57.607C67.7885 57.131 67.2817 56.9355 66.3529 56.7019C65.4569 56.4766 63.0204 56.4114 62.0283 56.5862ZM29.6541 57.1007V57.3321L30.4345 57.3895C30.8763 57.4219 31.3996 57.5158 31.6407 57.606C32.1323 57.79 32.5821 58.2393 32.7383 58.7024C32.8842 59.1351 32.9457 76.2801 32.8044 77.1007C32.6872 77.7803 32.3677 78.2331 31.7981 78.5265C31.4563 78.7027 31.2694 78.7371 30.5257 78.7604L29.6541 78.7878V79.0231V79.2584H34.4637H39.2734V79.0249V78.7913L38.4044 78.7582C37.4185 78.7206 37.054 78.5844 36.6218 78.0923C36.2798 77.7028 36.1739 77.2732 36.1671 76.248C36.1638 75.7703 36.134 75.3794 36.1006 75.3791C36.0672 75.3789 36.04 73.9047 36.04 72.103V68.8275L37.2092 68.8498L38.3784 68.8721L42.1258 74.0451L45.8731 79.218L48.9188 79.2392L51.9644 79.2604V79.0281C51.9644 78.8054 51.945 78.7934 51.4996 78.7413C49.9109 78.5554 48.6412 77.8315 47.5085 76.4657C46.9416 75.7822 41.6133 68.4049 41.6558 68.3624C41.6704 68.3478 41.986 68.252 42.3573 68.1496C45.4899 67.2846 47.1952 65.3502 47.1952 62.6617C47.1952 61.3739 46.8489 60.3607 46.0863 59.4173C45.046 58.1305 43.5885 57.3907 41.5367 57.1081C40.4973 56.9649 37.3651 56.8734 33.4331 56.8714L29.6541 56.8693V57.1007ZM76.053 57.0949V57.3205L76.9733 57.4071C78.0424 57.5075 78.4568 57.6863 78.8185 58.203C79.2544 58.8256 79.2833 59.1993 79.2871 64.265C79.2914 69.8405 79.3832 72.7334 79.5948 73.9643C79.8271 75.3154 80.4007 76.4763 81.3231 77.4624C82.8337 79.0771 84.7639 79.7383 87.9761 79.7414C90.7276 79.7441 92.4906 79.2112 94.0374 77.9093C95.3577 76.7981 95.9484 75.7129 96.3608 73.6409C96.5101 72.8914 96.5261 72.3518 96.5829 66.2049C96.6365 60.4102 96.661 59.5174 96.7778 59.1023C97.0803 58.0277 97.8106 57.4949 99.1274 57.3882L99.8184 57.3321V57.1007V56.8693H95.8575H91.8966V57.1007V57.3321L92.677 57.3895C93.6558 57.4612 94.2172 57.6637 94.5939 58.0806C95.1038 58.6449 95.0896 58.4204 95.0896 65.8815C95.0896 72.0769 95.0769 72.737 94.9445 73.4247C94.5794 75.3229 93.8243 76.4185 92.2675 77.3092C90.9668 78.0533 89.6715 78.3376 87.9079 78.2663C86.9028 78.2255 86.6786 78.1896 86.0945 77.9766C85.1855 77.6449 84.5622 77.2487 84.0082 76.6505C83.2045 75.7826 82.8355 74.7062 82.5884 72.5094C82.4317 71.1151 82.4314 60.0791 82.5881 59.2312C82.8109 58.0257 83.4066 57.5419 84.8371 57.4043L85.6723 57.3239V57.0966V56.8693H80.8627H76.053V57.0949ZM100.708 57.0949V57.3205L101.617 57.4061C102.774 57.5151 103.337 57.7847 103.643 58.3768C103.933 58.9362 103.948 59.4829 103.924 68.468C103.898 78.3924 103.945 77.6721 103.275 78.2456C102.817 78.6382 102.352 78.7735 101.461 78.7735H100.708V79.0159V79.2584H105.517H110.327V79.0249V78.7913L109.458 78.7582C108.771 78.732 108.519 78.6888 108.258 78.552C107.834 78.3304 107.45 77.892 107.338 77.5026C107.182 76.9616 107.097 75.0069 107.095 71.9234C107.094 69.1091 107.103 68.9126 107.235 68.9127C107.313 68.9127 107.777 68.9927 108.266 69.0902C109.004 69.2376 109.435 69.268 110.812 69.2698C112.249 69.2716 112.56 69.2486 113.156 69.0972C114.972 68.6357 116.344 67.6006 117.094 66.124C117.55 65.2281 117.689 64.643 117.74 63.4163C117.779 62.4571 117.763 62.2474 117.608 61.6822C117.072 59.7283 115.54 58.1716 113.479 57.486C112.003 56.9948 110.266 56.875 104.567 56.8716L100.708 56.8693V57.0949ZM65.7871 57.8841C68.4777 58.7132 70.1095 61.1662 70.7303 65.3158C70.9046 66.4801 70.8792 70.4941 70.6904 71.6152C70.5083 72.697 70.177 73.8633 69.8451 74.5909C69.0483 76.3381 67.5945 77.6775 65.8187 78.3008C65.1321 78.5418 65.0404 78.5534 63.7662 78.5623C62.4971 78.5709 62.3991 78.5601 61.7454 78.3386C59.3198 77.517 57.6902 75.23 56.9582 71.6203C56.7187 70.4395 56.712 70.3455 56.7048 68.0235C56.6975 65.711 56.7042 65.6037 56.9286 64.4671C57.4879 61.6334 58.6386 59.6243 60.3307 58.5271C60.9806 58.1057 61.9848 57.7158 62.5941 57.6483C62.7719 57.6285 63.4085 57.6259 64.0087 57.6424C64.8993 57.6669 65.2264 57.7113 65.7871 57.8841ZM39.9957 58.2123C41.6181 58.6113 42.8362 59.8291 43.2742 61.4901C43.4564 62.181 43.4106 63.729 43.1896 64.3458C42.7486 65.5767 41.7154 66.6286 40.4097 67.1762C39.6334 67.5016 38.6496 67.6763 37.1919 67.7474L36.04 67.8037V63.1447C36.04 59.4741 36.0614 58.4848 36.141 58.481C36.1967 58.4784 36.6058 58.39 37.0504 58.2848C38.0411 58.0503 39.2192 58.0213 39.9957 58.2123ZM111.083 58.5619C112.302 59.0463 113.187 60.0186 113.653 61.3857C113.852 61.9702 113.899 62.2589 113.939 63.1738C113.981 64.1347 113.966 64.3405 113.812 64.8973C113.717 65.2451 113.561 65.6816 113.466 65.8672C112.941 66.8978 111.987 67.7149 110.898 68.0661C110.528 68.1856 110.282 68.1998 109.322 68.1569C108.697 68.1289 107.948 68.0599 107.659 68.0035L107.134 67.901L107.113 63.2054L107.092 58.5097L107.76 58.3797C108.229 58.2882 108.728 58.2587 109.439 58.2802C110.34 58.3074 110.519 58.338 111.083 58.5619Z" fill="white"/>
</svg>
