<svg width="19" height="18" viewBox="0 0 19 18" fill="none" xmlns="http://www.w3.org/2000/svg">
<path fill-rule="evenodd" clip-rule="evenodd" d="M2.74491 0.0156558C2.57887 0.0419008 2.49887 0.0765559 2.27123 0.220926C1.80642 0.515709 1.28768 0.968841 0.983648 1.34567C0.444431 2.01402 0.110371 2.83321 0.0186257 3.71214C-0.0194792 4.07714 0.00331615 4.7368 0.0648476 5.04965C0.179185 5.63103 0.638991 6.80085 1.14802 7.80546C1.77116 9.03528 2.62135 10.3097 3.54702 11.4018C4.151 12.1142 5.16779 13.1598 5.81523 13.7341C7.15166 14.9196 8.55017 15.9449 10.0203 16.8168C11.0117 17.4049 11.3953 17.5809 12.1246 17.7822C13.83 18.253 15.4257 17.9564 16.6943 16.9327C17.2078 16.5183 17.7809 15.8238 17.9233 15.4433C18.0602 15.0774 18.0344 14.7337 17.8408 14.3462C17.7107 14.086 17.6396 14.0055 17.4061 13.8546C17.2874 13.778 16.4197 13.2033 15.4777 12.5777C14.5358 11.9521 13.7235 11.4218 13.6725 11.3992C13.3294 11.2475 12.9952 11.2565 12.6553 11.4267C12.5371 11.486 12.428 11.5888 11.9019 12.1369C11.2671 12.7983 11.1581 12.8909 10.8745 13.0102C10.6264 13.1145 10.3975 13.1371 10.141 13.0828C9.97559 13.0477 9.36634 12.7632 8.96058 12.5315C8.58471 12.3169 8.04881 11.952 7.70936 11.6796C7.35968 11.3991 6.77857 10.8403 6.49325 10.5103C5.87338 9.79321 5.32037 8.90311 5.05789 8.20004C4.9997 8.04415 4.99469 8.00537 4.99372 7.704C4.99273 7.38981 4.99566 7.36845 5.0689 7.15635C5.25351 6.62157 5.70038 6.06087 6.36764 5.52664C6.56319 5.37009 6.6036 5.32558 6.67203 5.19145C6.74511 5.04823 6.75095 5.02162 6.75095 4.83155C6.75095 4.46162 6.84122 4.61974 5.30772 2.30393C5.03672 1.8947 4.64501 1.30247 4.43726 0.987894C4.02322 0.360967 3.97276 0.307034 3.66197 0.159417C3.3786 0.02481 3.03137 -0.0296191 2.74491 0.0156558Z" fill="#BCBFC2"/>
</svg>
