<svg width="24" height="23" viewBox="0 0 24 23" fill="none" xmlns="http://www.w3.org/2000/svg">
<path d="M11.5051 5.60309C8.24105 5.60309 5.60822 8.23591 5.60822 11.5C5.60822 14.7641 8.24105 17.3969 11.5051 17.3969C14.7692 17.3969 17.402 14.7641 17.402 11.5C17.402 8.23591 14.7692 5.60309 11.5051 5.60309ZM11.5051 15.3338C9.39579 15.3338 7.67137 13.6145 7.67137 11.5C7.67137 9.38553 9.39066 7.66624 11.5051 7.66624C13.6196 7.66624 15.3389 9.38553 15.3389 11.5C15.3389 13.6145 13.6145 15.3338 11.5051 15.3338ZM19.0187 5.36188C19.0187 6.12658 18.4028 6.73731 17.6433 6.73731C16.8786 6.73731 16.2678 6.12144 16.2678 5.36188C16.2678 4.60231 16.8837 3.98644 17.6433 3.98644C18.4028 3.98644 19.0187 4.60231 19.0187 5.36188ZM22.9243 6.75784C22.8371 4.91537 22.4162 3.28333 21.0664 1.93869C19.7218 0.594053 18.0898 0.173212 16.2473 0.0808323C14.3484 -0.0269441 8.65676 -0.0269441 6.75784 0.0808323C4.92051 0.16808 3.28846 0.588921 1.93869 1.93356C0.588921 3.2782 0.173212 4.91024 0.0808323 6.75271C-0.0269441 8.65162 -0.0269441 14.3432 0.0808323 16.2422C0.16808 18.0846 0.588921 19.7167 1.93869 21.0613C3.28846 22.4059 4.91537 22.8268 6.75784 22.9192C8.65676 23.0269 14.3484 23.0269 16.2473 22.9192C18.0898 22.8319 19.7218 22.4111 21.0664 21.0613C22.4111 19.7167 22.8319 18.0846 22.9243 16.2422C23.0321 14.3432 23.0321 8.65676 22.9243 6.75784ZM20.4711 18.2796C20.0708 19.2856 19.2958 20.0605 18.2848 20.466C16.7708 21.0664 13.1782 20.9279 11.5051 20.9279C9.83203 20.9279 6.23435 21.0613 4.72548 20.466C3.71957 20.0657 2.94461 19.2907 2.53916 18.2796C1.93869 16.7656 2.07726 13.1731 2.07726 11.5C2.07726 9.8269 1.94382 6.22922 2.53916 4.72035C2.93947 3.71444 3.71444 2.93947 4.72548 2.53403C6.23948 1.93356 9.83203 2.07213 11.5051 2.07213C13.1782 2.07213 16.7759 1.93869 18.2848 2.53403C19.2907 2.93434 20.0657 3.7093 20.4711 4.72035C21.0716 6.23435 20.933 9.8269 20.933 11.5C20.933 13.1731 21.0716 16.7708 20.4711 18.2796Z" fill="white"/>
</svg>
