<svg width="159" height="143" viewBox="0 0 159 143" fill="none" xmlns="http://www.w3.org/2000/svg">
<path fill-rule="evenodd" clip-rule="evenodd" d="M48.3837 142.68C47.2538 142.68 46.1231 142.68 44.9891 142.68C30.6465 133.237 14.6802 125.421 0.852754 115.457C1.51282 107.377 -1.15871 95.9457 3.76078 92.1285C-1.0672 88.8633 2.36815 77.3181 1.33569 70.2547C0.700988 67.6724 4.03804 69.0725 4.24734 67.3369C-1.3585 64.0399 2.4497 51.3125 1.33569 43.52C42.7914 34.6725 77.0856 18.6481 109.016 0.257935C125.521 9.80238 142.686 18.6912 158.489 28.9394C157.603 36.9584 161.173 49.4457 154.609 51.781C156.385 51.9508 158.444 51.8319 158.489 53.7237C157.42 60.2681 160.957 71.427 156.063 74.1424C160.63 77.9891 157.642 89.4135 158.489 96.9894C126.272 116.706 91.3272 133.705 48.3837 142.68ZM109.017 9.00561C101.389 14.6479 92.6102 19.1416 84.2794 24.0789C95.6038 30.0599 105.513 37.4719 116.779 43.52C125.374 38.5265 134.526 34.085 142.483 28.4522C131.097 22.2048 120.532 15.1287 109.017 9.00561ZM151.213 32.8252C141.954 38.9383 131.609 43.9577 121.143 48.8627C121.143 52.7567 121.143 56.642 121.143 60.5332C132.138 55.8384 142.016 50.0159 151.698 44.0022C150.859 40.1614 153.796 35.205 151.213 32.8252ZM61.0002 33.3132C60.8485 33.2483 60.1789 33.2565 60.0271 33.3132C48.5296 37.3003 34.7619 42.9644 21.7068 46.9205C33.1355 52.3195 43.4615 58.8244 54.6904 64.4208C67.542 60.1296 81.4878 56.9267 93.4941 51.7815C82.0744 46.7562 71.9704 38.0162 61.0002 33.3132ZM9.58045 60.0479C20.0016 66.3694 30.6184 72.5416 41.5941 79.0033C44.841 80.9133 49.8461 84.6538 52.7509 84.8377C55.8515 85.0352 60.2799 82.5082 63.9042 81.434C75.6137 77.9714 86.2437 74.5541 96.8923 70.7369C96.6952 66.6545 97.0495 63.122 97.3766 59.5599C83.0353 64.9575 68.8812 70.5403 51.7778 73.1672C37.8434 65.2617 23.6014 57.6603 9.57999 49.8384C9.58045 53.242 9.58045 56.642 9.58045 60.0479ZM119.685 74.6281C120.006 78.3577 119.047 83.3685 120.172 86.2941C130.295 81.0472 140.666 76.0401 150.246 70.2547C150.646 67.0849 151.332 61.6292 150.246 58.5842C140.848 64.7228 129.985 69.389 119.685 74.6281ZM9.09797 86.2946C23.6934 94.0285 37.2617 102.787 51.7783 110.597C67.3844 106.306 82.4428 101.465 96.8927 96.0143C96.5697 92.4449 97.5288 87.5975 96.4057 84.8377C89.9124 87.5531 83.0788 90.6353 75.5521 93.0982C69.6332 95.0354 57.5259 99.2622 51.2994 98.4445C48.5676 98.0918 44.3771 95.1421 40.625 93.0982C30.6298 87.6543 16.8716 79.7992 9.09797 75.5974C9.09797 79.1672 9.09797 82.7307 9.09797 86.2946ZM119.204 98.4445C119.204 102.332 119.204 106.224 119.204 110.109C130.642 104.559 142.351 99.2871 151.698 91.6409C151.383 88.3948 152.342 83.8698 151.213 81.4336C140.885 87.4455 130.264 93.1663 119.204 98.4445ZM9.09797 112.054C18.6375 118.097 28.6033 123.673 38.6838 129.553C41.797 131.371 46.3188 135.16 48.8702 135.389C51.6265 135.628 57.5517 132.983 61.0007 131.983C73.3218 128.401 84.7215 124.237 95.9196 120.318C95.6043 116.749 96.5638 111.902 95.4331 109.142C81.0334 115.28 65.9129 120.71 48.3837 123.724C35.5157 116.205 22.0955 109.237 9.09797 101.85C9.09797 105.251 9.09797 108.655 9.09797 112.054Z" fill="black"/>
<path fill-rule="evenodd" clip-rule="evenodd" d="M89.13 25.5344C101.11 23.7356 109.219 30.0281 112.409 38.6618C104.414 34.5204 97.0622 29.7362 89.13 25.5344Z" fill="black"/>
<path fill-rule="evenodd" clip-rule="evenodd" d="M62.4526 36.2311C71.5034 40.6045 79.4043 46.1355 88.1569 50.8113C75.9182 53.2111 60.1852 51.5218 62.4526 36.2311Z" fill="black"/>
</svg>
