<svg width="161" height="79" viewBox="0 0 161 79" fill="none" xmlns="http://www.w3.org/2000/svg">
<path fill-rule="evenodd" clip-rule="evenodd" d="M10.5303 0.155234C9.31256 0.358688 7.57467 0.940694 6.43154 1.52767C4.4686 2.53548 2.46845 4.5822 1.46225 6.61241C0.244053 9.07052 0.0048272 10.1978 0.000155455 13.501C-0.00322753 15.9087 0.0465508 16.4855 0.35247 17.5861C1.06854 20.1624 2.39435 22.3886 4.26949 24.1634C5.55067 25.3762 6.44427 25.9852 8.13608 26.7987L9.46608 27.4384H4.92369H0.381306V33.113V38.7878L0.904863 38.9528C1.32854 39.0864 7.82388 40.7618 18.5045 43.4924C19.2133 43.6736 19.8486 43.8708 19.9163 43.9307C19.9841 43.9906 15.7433 45.1386 10.4923 46.4817C5.24137 47.825 0.818356 48.9606 0.663221 49.0055C0.401442 49.0811 0.381306 49.4989 0.381306 54.8433V60.5998L9.52343 60.6001L18.6656 60.6006L16.4908 61.817C15.2947 62.486 13.1199 63.7018 11.6579 64.5186C8.99665 66.0056 3.70856 68.9768 1.58952 70.1756L0.461853 70.8137L0.418841 74.8381L0.375828 78.8626H15.2798H30.1838V75.1793V71.496L20.9612 71.4546L11.7385 71.4133L15.3531 69.4108C17.3412 68.3094 19.2985 67.2278 19.7027 67.0072C20.1069 66.7866 22.6306 65.389 25.3107 63.9014L30.1838 61.1967V57.2137V53.2306H18.9608C12.7883 53.2306 7.76814 53.201 7.80503 53.1646C7.84209 53.1284 11.5693 52.0796 16.088 50.834C20.6068 49.5885 25.6269 48.2034 27.2439 47.7561L30.1838 46.9428V43.9584V40.9739L27.4855 40.2307C26.0013 39.8219 21.0301 38.4542 16.4379 37.1917C11.8459 35.929 8.15316 34.8747 8.23194 34.8486C8.31055 34.8225 13.2639 34.7845 19.2392 34.7644L30.1033 34.7275L30.1466 31.083L30.19 27.4384L25.7971 27.4326L21.4042 27.4269L22.5534 26.8905C27.3455 24.6541 30.2766 20.5835 30.8651 15.3478C31.1886 12.4684 30.7167 9.37923 29.5797 6.93281C27.843 3.19599 24.0203 0.537311 19.7602 0.103329L18.7461 0V3.86386V7.72773L19.1891 7.82689C21.222 8.28218 21.9454 8.65689 22.922 9.76018C23.8821 10.8447 24.2923 12.2764 24.184 14.1644C24.1165 15.3412 24.0129 15.7726 23.5939 16.6188C22.3358 19.1606 19.4043 20.5538 15.3296 20.5471C11.4005 20.5404 8.50499 19.1272 7.21688 16.5874C6.77773 15.7215 6.74825 15.5432 6.74648 13.7413C6.74471 11.9993 6.78402 11.7362 7.16468 10.9378C7.65812 9.90324 8.30572 9.19692 9.27019 8.64151C9.90088 8.27833 10.3394 8.13127 11.6982 7.82689L12.1412 7.72773V3.88597V0.0442152L11.5371 0.0660024C11.2049 0.0780174 10.7518 0.118067 10.5303 0.155234ZM101.871 0.404345C101.543 0.573676 101.459 0.751338 101.42 1.35481C101.379 1.97623 101.431 2.13883 101.737 2.35238C102.202 2.67598 102.825 2.67822 103.285 2.35798C103.694 2.07299 103.783 1.09369 103.442 0.637756C103.167 0.271219 102.36 0.151389 101.871 0.404345ZM148.669 0.364134C145.865 0.617891 144.824 1.63484 144.617 4.32284C144.467 6.2651 144.746 7.29262 145.676 8.21698L146.436 8.97248L145.197 9.32828C144.293 9.58813 143.804 9.83403 143.383 10.24C142.513 11.0804 142.386 11.6292 142.386 14.546V17.1129L142.909 18.168C143.888 20.1456 145.017 20.5498 149.559 20.5498C152.721 20.5498 154.085 20.3895 155.038 19.906C155.575 19.6338 156.505 18.7226 156.885 18.0965C157.024 17.8679 157.246 17.9969 158.491 19.0303C159.286 19.6899 159.984 20.2294 160.043 20.2294C160.101 20.2294 160.34 19.9798 160.575 19.6746L161 19.1199L159.234 17.7353L157.468 16.3505L157.564 14.1247L157.659 11.899H156.829H155.999V13.3408C155.999 14.2134 155.934 14.7826 155.835 14.7826C155.744 14.7826 153.672 13.0454 151.229 10.9223C148.139 8.23716 146.718 6.89757 146.56 6.5219C146.234 5.74525 146.265 3.78184 146.615 3.09907C147.106 2.14203 147.861 1.88651 150.199 1.88651C153.256 1.88651 153.734 2.25385 153.891 4.72301L153.985 6.21191L154.752 6.26077C155.298 6.2957 155.544 6.24475 155.606 6.08391C155.654 5.95976 155.621 5.161 155.534 4.30906C155.232 1.37355 154.289 0.51296 151.166 0.321681C150.501 0.280831 149.378 0.300055 148.669 0.364134ZM43.1104 10.4899L43.152 20.4697L43.9574 20.4836L44.7629 20.4974L44.8435 11.9519L44.924 3.40617L47.6781 8.01304C49.1929 10.5468 51.4996 14.4074 52.8043 16.5922L55.1766 20.5645L56.1718 20.5171L57.1672 20.4697L57.2088 10.4973L57.2502 0.524815H56.3643H55.4786L55.4369 9.05162L55.3952 17.5784L51.6094 11.2552C49.5273 7.77739 47.2385 3.95822 46.5232 2.76842L45.2227 0.604915L44.1459 0.557496L43.069 0.510077L43.1104 10.4899ZM78.9976 6.06869C78.037 6.32534 77.5447 6.59159 76.861 7.2239L76.418 7.63353V6.79424V5.95479L75.5723 6.00333L74.7265 6.05171V13.2607V20.4697H75.6125H76.4986L76.5933 15.4234C76.698 9.83884 76.747 9.53751 77.7095 8.55115C78.4659 7.77611 79.406 7.50969 81.0506 7.60437C82.8241 7.70642 83.4026 8.16475 83.54 9.57611C83.585 10.038 83.6207 10.0586 84.456 10.1059L85.3253 10.1552L85.2267 9.32652C85.097 8.23796 84.5694 7.18257 83.9015 6.67601C82.8259 5.86011 80.7434 5.60219 78.9976 6.06869ZM90.9813 5.96024C89.0912 6.26093 88.0557 6.92753 87.479 8.21441C87.0321 9.21166 87.0338 11.0687 87.4825 12.0592C88.1602 13.5555 88.7484 13.7719 92.89 14.0489C96.0626 14.261 96.146 14.2757 96.497 14.6815C97.2025 15.4971 97.1441 17.4006 96.3909 18.1497C95.8096 18.7277 94.4432 18.9853 92.31 18.9191C89.5593 18.8336 88.9396 18.485 88.5874 16.8252C88.5003 16.4141 88.4387 16.3846 87.6708 16.3846H86.8476L86.9576 17.2088C87.1787 18.8653 88.0165 19.8614 89.5983 20.3481C90.8758 20.7412 94.634 20.7323 95.9393 20.3329C97.4035 19.8851 98.1792 19.1718 98.5663 17.9174C99.2712 15.6336 98.4018 13.1918 96.7055 12.6917C96.4012 12.602 94.7878 12.4278 93.1202 12.3048C89.2581 12.02 88.9834 11.8641 88.9834 9.95819C88.9834 8.92554 89.3041 8.33088 90.0637 7.95569C90.9412 7.52219 95.2406 7.50857 96.0286 7.93679C96.6331 8.26536 97.0381 8.95181 97.0381 9.6482C97.0381 10.1336 97.0439 10.1368 97.9242 10.1368C98.7433 10.1368 98.8102 10.1088 98.8102 9.76547C98.8102 9.56105 98.6936 9.00244 98.551 8.52392C98.2183 7.40652 97.3568 6.56115 96.1921 6.20855C95.2157 5.91314 92.185 5.76864 90.9813 5.96024ZM111.134 6.03553C110.193 6.26558 109.743 6.4873 108.928 7.12249L108.333 7.58627L108.284 6.81891L108.234 6.05171L107.469 6.00285L106.704 5.95399V13.2602V20.5666L107.55 20.5181L108.395 20.4697L108.492 15.5035C108.595 10.2483 108.668 9.70475 109.388 8.85313C110.192 7.9033 110.924 7.65371 112.906 7.65371C114.859 7.65371 115.44 7.85172 116.111 8.74644C116.437 9.18074 116.453 9.42056 116.531 14.834L116.611 20.4697L117.464 20.5184L118.317 20.5671L118.27 14.591L118.222 8.61491L117.817 7.89401C117.27 6.91968 116.183 6.21608 114.875 5.98956C113.577 5.7648 112.171 5.7821 111.134 6.03553ZM124.746 5.96569C123.069 6.28448 121.792 7.20499 121.235 8.49604C120.728 9.67351 120.503 11.663 120.601 14.1235C120.773 18.4566 121.801 19.9005 125.069 20.4016C127.212 20.7305 129.385 20.2993 130.541 19.3155L131.19 18.7626L131.187 20.4172C131.182 22.8589 130.666 23.781 129.015 24.2994C127.405 24.8052 124.695 24.6862 123.685 24.0654C123.094 23.7022 122.652 23.0239 122.652 22.4802C122.652 22.1927 122.551 22.1518 121.842 22.1518C120.85 22.1518 120.763 22.3107 121.109 23.4919C121.591 25.1437 123.139 26.0599 125.774 26.2549C129.085 26.5 131.498 25.5785 132.533 23.6737C132.878 23.0398 132.882 22.9411 132.882 14.5423V6.05171H132.076H131.271L131.221 6.73881L131.171 7.42591L130.7 7.03166C129.588 6.10138 126.727 5.58906 124.746 5.96569ZM60.2064 6.21015C60.0397 6.64221 60.2709 17.0493 60.4648 17.8384C60.9225 19.7014 62.7303 20.7132 65.5923 20.7081C67.3046 20.705 68.7633 20.2297 69.6923 19.372C69.9359 19.1471 70.1416 19.0499 70.1492 19.1557C70.1569 19.2616 70.175 19.6006 70.1895 19.909L70.2159 20.4697L71.0616 20.4888L71.9074 20.5077V13.2397V5.97161H71.0213H70.1353L70.1321 10.1769C70.1303 12.4898 70.0577 14.8718 69.9707 15.4705C69.5955 18.0505 68.3966 19.008 65.5441 19.0056C63.9343 19.0042 62.8919 18.5976 62.4545 17.8005C62.1914 17.321 62.1528 16.6859 62.0806 11.6587L62 6.05171L61.1525 6.00317C60.4946 5.96553 60.2829 6.01198 60.2064 6.21015ZM101.623 6.17186C101.58 6.28208 101.564 9.54407 101.587 13.4209L101.629 20.4697H102.515H103.401L103.443 13.3514C103.476 7.76281 103.442 6.20535 103.282 6.10474C102.955 5.8984 101.709 5.94887 101.623 6.17186ZM128.822 7.89562C129.842 8.27513 130.238 8.65544 130.739 9.73824C131.078 10.4695 131.11 10.7613 131.11 13.1806C131.11 15.6983 131.09 15.8665 130.687 16.7196C130.455 17.212 130.046 17.7703 129.778 17.9602C128.495 18.8687 125.455 19.0402 124.073 18.2822C123.663 18.0569 123.244 17.6528 123.032 17.2766C122.536 16.3968 122.264 14.2748 122.383 12.2196C122.598 8.53834 123.445 7.5962 126.553 7.58066C127.578 7.57554 128.19 7.66044 128.822 7.89562ZM150.931 12.7444C152.707 14.2618 154.475 15.7712 154.86 16.0983C155.536 16.6733 155.553 16.7093 155.357 17.1805C155.085 17.8319 154.214 18.5701 153.466 18.7831C151.798 19.2578 146.296 19.108 145.228 18.5592C144.952 18.4167 144.562 17.9957 144.361 17.6228C144.03 17.0059 143.997 16.7306 143.997 14.5423C143.997 11.9953 144.1 11.5629 144.866 10.8729C145.261 10.5181 146.716 9.98751 147.3 9.98606C147.59 9.98542 148.608 10.759 150.931 12.7444ZM113.506 28.8499C111.514 29.4845 110.87 30.5537 110.762 33.4059L110.691 35.2882H109.503H108.315V35.992C108.315 36.8215 108.427 36.8902 109.776 36.8902H110.727L110.77 43.2582L110.812 49.6261H111.698H112.584L112.626 43.2582L112.668 36.8902H115.485H118.303V36.0892V35.2882H115.483H112.664V33.5106C112.664 32.1371 112.726 31.63 112.934 31.2798C113.354 30.5724 114.194 30.2839 115.834 30.2839C117.638 30.284 118.379 30.5623 118.717 31.3657C118.955 31.932 118.971 31.9397 119.798 31.8921C120.628 31.8445 120.638 31.8378 120.584 31.3633C120.442 30.1165 119.589 29.2493 118.051 28.7891C117.003 28.4755 114.58 28.5079 113.506 28.8499ZM80.2843 32.755V36.7899L79.8413 36.3739C78.3726 34.9942 75.0294 34.5704 72.6375 35.4603C70.3855 36.2981 69.6557 38.0262 69.6533 42.5268C69.6508 47.094 70.5922 48.9408 73.2702 49.6221C75.666 50.2317 78.602 49.7334 79.834 48.5082L80.2656 48.079L80.3152 48.8527L80.3648 49.6261H81.1703H81.9758L82.0172 39.1731L82.0586 28.72H81.1714H80.2843V32.755ZM65.8236 29.5269C65.1486 29.7966 65.0259 30.8329 65.5918 31.4835C65.9221 31.8631 66.9411 31.8556 67.2912 31.4708C67.5649 31.1701 67.6482 30.2307 67.4312 29.8916C67.3152 29.7099 66.5312 29.3496 66.2989 29.3709C66.2381 29.3765 66.0244 29.4467 65.8236 29.5269ZM105.305 29.5186C104.146 29.9944 104.521 31.771 105.778 31.7587C106.475 31.752 106.861 31.4335 106.968 30.7759C107.119 29.8521 106.194 29.1535 105.305 29.5186ZM60.1044 29.7144C60.0589 29.8283 58.8289 32.8051 57.3711 36.3295C55.9136 39.8539 54.3013 43.7649 53.7884 45.0204C53.2755 46.2758 52.811 47.3011 52.7563 47.2986C52.7013 47.296 51.0198 43.349 49.0194 38.5276L45.382 29.7613L44.2255 29.7142L43.069 29.6671L43.1104 39.6466L43.152 49.6261L43.9963 49.6745L44.8406 49.7229L44.8823 41.3441L44.924 32.9653L47.9689 40.3345C49.6434 44.3876 51.2156 48.1543 51.4625 48.705L51.9115 49.7062L52.6061 49.7038C52.9882 49.7024 53.3923 49.6436 53.5041 49.5731C53.6157 49.5026 54.9412 46.4578 56.4494 42.807C57.9577 39.1562 59.5124 35.4124 59.9045 34.4872L60.6174 32.8051L60.6241 41.2637L60.6307 49.7224L61.4765 49.6637L62.3222 49.6053V39.6032V29.6011L61.2547 29.5542C60.4959 29.5208 60.1632 29.5671 60.1044 29.7144ZM123.619 35.136C120.501 35.6733 119.276 37.7502 119.276 42.4972C119.276 44.113 119.499 45.8052 119.854 46.8772C120.558 49.0069 122.741 50.0125 126.245 49.8223C128.87 49.6799 130.229 49.0318 130.923 47.5917C131.148 47.1246 131.355 46.4902 131.382 46.1818L131.432 45.6211L130.586 45.5727C129.797 45.5275 129.74 45.5489 129.74 45.8931C129.739 46.4231 129.182 47.2559 128.588 47.615C127.898 48.0323 126.055 48.3226 124.934 48.1904C122.108 47.8572 121.4 47.0748 121.125 43.9791L121.022 42.8176H126.372H131.722L131.617 41.2215C131.426 38.3218 131.032 37.169 129.906 36.2106C129.549 35.9061 128.875 35.5343 128.411 35.3843C127.395 35.0569 124.845 34.9247 123.619 35.136ZM138.28 35.2251C137.32 35.4817 136.828 35.748 136.144 36.3803L135.701 36.7899V36.0391V35.2882H134.813H133.925L133.967 42.4572L134.009 49.6261L134.834 49.6738L135.658 49.7214L135.742 45.028C135.832 39.9901 135.947 39.0978 136.635 38.1061C137.247 37.2249 138.103 36.8276 139.549 36.7536C141.591 36.6493 142.526 37.1601 142.757 38.5068L142.878 39.2131H143.68H144.481L144.431 38.4922C144.363 37.4855 143.723 36.2494 143.028 35.7837C141.856 34.9974 139.965 34.7749 138.28 35.2251ZM65.5022 42.4572L65.5441 49.6261H66.4302H67.3162L67.3581 42.4572L67.4001 35.2882H66.4302H65.4602L65.5022 42.4572ZM83.7204 35.4084C83.7601 35.4744 84.7088 38.5563 85.8285 42.2569C86.9483 45.9575 87.9334 49.1474 88.0178 49.3458C88.147 49.6498 88.2946 49.7062 88.9602 49.7062C89.3979 49.7062 89.8216 49.617 89.9113 49.506C90.0004 49.3959 90.8228 46.7645 91.7388 43.6587C92.6548 40.5529 93.4449 38.0116 93.4945 38.0116C93.5442 38.0116 94.2652 40.3004 95.0966 43.098C95.9282 45.8954 96.7116 48.53 96.8376 48.9525L97.0667 49.7208L97.8544 49.6851C98.2878 49.6654 98.7209 49.6009 98.817 49.5418C98.9131 49.4827 99.9535 46.2694 101.129 42.4014L103.266 35.3683L102.382 35.3194C101.896 35.2927 101.455 35.3433 101.403 35.4321C101.35 35.5207 100.582 38.1197 99.6962 41.2076C98.8102 44.2956 98.049 46.8215 98.0047 46.8207C97.9604 46.82 97.1321 44.225 96.1639 41.0538L94.4038 35.2882H93.4913H92.5787L91.251 39.7338C90.5207 42.1787 89.7352 44.8094 89.5055 45.5796C89.2758 46.3499 89.063 46.9552 89.0327 46.925C88.9881 46.8808 87.3641 41.3976 85.8587 36.2094L85.5914 35.2882H84.6198C84.0855 35.2882 83.6808 35.3424 83.7204 35.4084ZM104.932 42.4817V49.6751L105.818 49.6663L106.704 49.6577V42.4729V35.2882H105.818H104.932V42.4817ZM145.044 35.4364C145.044 35.5267 146.066 38.3238 147.315 41.6521C148.564 44.9805 149.725 48.1002 149.894 48.5848L150.201 49.4659L149.093 52.3495L147.986 55.2331L148.869 55.2816C149.355 55.3084 149.779 55.3041 149.811 55.272C149.843 55.24 151.565 50.7275 153.636 45.244L157.402 35.2741L156.433 35.3212L155.464 35.3683L153.371 41.1756C152.22 44.3696 151.234 46.9826 151.181 46.9825C151.129 46.9823 150.136 44.3691 148.976 41.1752L146.866 35.3683L145.955 35.3202C145.409 35.2914 145.044 35.338 145.044 35.4364ZM127.962 36.9927C128.269 37.1193 128.66 37.3463 128.832 37.497C129.323 37.9301 129.743 39.0332 129.85 40.1701L129.948 41.2156H125.525H121.103L121.222 40.1104C121.46 37.8889 122.387 36.9631 124.666 36.6701C125.483 36.565 127.374 36.7502 127.962 36.9927ZM78.2705 37.2136C79.8199 37.9784 80.2038 39.0274 80.2038 42.4972C80.2038 45.1604 80.0691 45.8518 79.369 46.784C78.6977 47.6779 77.8547 47.9975 75.9663 48.0739C73.479 48.1747 72.4134 47.6468 71.8181 46.0194C71.4639 45.0508 71.3174 41.4756 71.5723 40.02C72.0314 37.3987 72.9643 36.6908 75.8542 36.7713C77.1872 36.8085 77.604 36.8849 78.2705 37.2136ZM122.008 68.3695V78.8626H122.894H123.78V68.3695V57.8764H122.894H122.008V68.3695ZM48.8086 58.6905C45.4352 59.051 43.7672 60.347 43.0532 63.163C42.887 63.8187 42.8298 65.2943 42.8298 68.9302C42.8298 73.5324 42.8506 73.8815 43.1871 74.9377C43.8356 76.9735 44.8167 77.9515 46.8475 78.5869C47.8305 78.8945 48.3453 78.9427 50.6429 78.9427C53.0197 78.9427 53.4203 78.9023 54.4286 78.5613C56.3708 77.9043 57.2935 76.6738 57.5263 74.4308L57.615 73.576H56.7065H55.7979V74.1828C55.7979 74.5167 55.6349 75.1107 55.4354 75.5032C54.7139 76.9234 53.442 77.3295 50.0083 77.2356C47.9937 77.1807 47.7467 77.1398 46.88 76.718C45.7826 76.1842 45.1296 75.3116 44.8459 74.0008C44.5739 72.7439 44.4599 67.6556 44.6551 65.4859C44.8689 63.1084 45.1597 62.2289 45.9742 61.4972C47.0749 60.5083 49.5761 60.0806 52.2488 60.4242C54.6335 60.7308 55.5419 61.4384 55.7455 63.1475L55.8428 63.964H56.7289H57.6149L57.5202 63.1691C57.3645 61.863 57.0643 61.1003 56.4181 60.3702C56.0817 59.9901 55.5595 59.5625 55.2576 59.4201C53.8435 58.7528 51.115 58.4441 48.8086 58.6905ZM117.98 58.6348C117.194 58.9094 116.924 59.851 117.426 60.5641C117.609 60.8239 117.838 60.9196 118.272 60.9178C118.963 60.9149 119.149 60.8162 119.417 60.31C119.632 59.9047 119.522 59.1075 119.219 58.8708C118.953 58.6636 118.271 58.5335 117.98 58.6348ZM64.0764 64.3626C60.6341 65.1073 59.6995 66.8686 59.8684 72.292C59.9735 75.6568 60.1787 76.3883 61.332 77.5068C62.5215 78.6604 63.4762 78.9427 66.1885 78.9427C70.1281 78.9427 71.711 77.927 72.3233 75.0061C72.6001 73.6862 72.6479 69.8709 72.4056 68.4341C71.9828 65.9261 70.6354 64.6772 67.9335 64.2887C66.4788 64.0797 65.2783 64.1026 64.0764 64.3626ZM94.4606 64.2349C93.5293 64.39 92.4651 64.8312 91.7943 65.3403L91.0776 65.8843V65.1644V64.4446H90.1916H89.3056V71.6536V78.8626H90.1916H91.0776L91.0791 75.4583C91.0805 71.5914 91.2887 68.7532 91.6304 67.9402C92.2366 66.4974 93.7009 65.8127 95.9661 65.9128C97.6376 65.9868 98.4426 66.3547 98.888 67.2481C99.1838 67.8413 99.212 68.2958 99.2677 73.3757L99.3278 78.8626H100.206H101.084L101.034 73.0553C100.99 67.8695 100.954 67.1795 100.695 66.6073C100.331 65.8058 99.7078 65.1444 98.9505 64.757C97.9888 64.2649 95.8053 64.0111 94.4606 64.2349ZM107.7 64.2924C105.636 64.6602 104.187 65.7908 103.724 67.3944C103.365 68.6385 103.143 71.0474 103.245 72.5904C103.529 76.8899 104.467 78.2803 107.481 78.8698C108.795 79.1269 111.667 78.9842 112.739 78.6085C113.843 78.222 114.965 77.0865 115.214 76.1038C115.549 74.7813 115.513 74.6974 114.615 74.6974C113.795 74.6974 113.631 74.8361 113.631 75.5275C113.631 75.9989 112.669 76.8795 111.932 77.0829C111.582 77.1797 110.601 77.2591 109.754 77.2596C105.82 77.262 104.979 76.1389 105.138 71.0988C105.184 69.6386 105.309 68.2663 105.427 67.9193C105.881 66.5935 107.375 65.8864 109.723 65.8864C112.148 65.8864 113.256 66.424 113.623 67.78L113.804 68.4496H114.626H115.447L115.344 67.7016C115.136 66.1932 114.121 65.0875 112.432 64.53C111.469 64.2123 108.879 64.0822 107.7 64.2924ZM74.8465 70.0115C74.929 76.4923 74.9856 76.8255 76.1777 77.869C77.1392 78.7107 78.0262 78.9427 80.2843 78.9427C81.9473 78.9427 82.2276 78.8999 83.0229 78.5247C83.5102 78.2948 84.1082 77.9198 84.3519 77.6914L84.7949 77.2758V78.0693V78.8626H85.681H86.567V71.6536V64.4446H85.681H84.7949V68.3336C84.7949 74.051 84.5367 75.5181 83.3562 76.5057C82.626 77.1169 81.8081 77.3309 80.2038 77.3306C78.5938 77.3303 77.6301 76.9812 77.1259 76.2158C76.7636 75.666 76.5973 73.2567 76.5873 68.4095L76.5791 64.4446H75.6775H74.7758L74.8465 70.0115ZM117.497 71.6536V78.8626H118.383H119.269V71.6536V64.4446H118.383H117.497V71.6536ZM69.1051 66.3829C69.6989 66.6868 69.9755 66.9626 70.2835 67.5578C70.6502 68.2662 70.6919 68.5569 70.7533 70.8255C70.8409 74.0737 70.6341 75.3031 69.8557 76.16C69.0571 77.039 68.026 77.3127 65.8064 77.2343C64.3538 77.1832 63.9854 77.1139 63.3756 76.7768C62.4115 76.2438 61.9868 75.5638 61.7513 74.1751C61.5261 72.8474 61.6303 69.043 61.9182 68.0807C62.1835 67.1939 62.8448 66.5483 63.8541 66.1906C65.1813 65.7204 68.0131 65.8241 69.1051 66.3829Z" fill="white"/>
</svg>
